# xmcd
#
# Track frame offsets:
#	150
#	20966
#	43606
#	58446
#	79666
#	98791
#	116026
#	134354
#	157174
#	174808
#	212576
#
# Disc length: 3127 seconds
#
# Revision: 0
# Processed by: cddbd v1.5.2PL0 Copyright (c) Steve Scherf et al.
# Submitted via: EZCDAudioConverter 1.1.0.1
#
DISCID=9a0c350b
DTITLE=Kube - Lentokonetila
DYEAR=2013
DGENRE=Rap
TTITLE0=Lentokonetila
TTITLE1=Marssi feat. Julma Henri, Mies Nimeltä Hevonen, Jontti
TTITLE2=Syntynyt feat. Dada
TTITLE3=Kenkäboxi feat. Mäkki
TTITLE4=Rytmi veres feat. Kesken, RPK
TTITLE5=Ota tai jätä
TTITLE6=Ei tanssi ei laula feat. Mäkki
TTITLE7=Noin feat. Lommo, Mindman
TTITLE8=Unelmist kiinni feat. Puppa J
TTITLE9=Kenkäboxi RMX feat. OG Ikonen, Särre, Dj Kridlokk, Chebaleba, Eevil St
TTITLE9=öö, Dada
TTITLE10=Kopioi
EXTD=
EXTT0=
EXTT1=
EXTT2=
EXTT3=
EXTT4=
EXTT5=
EXTT6=
EXTT7=
EXTT8=
EXTT9=
EXTT10=
PLAYORDER=
